<svg xmlns="http://www.w3.org/2000/svg" width="1024" height="1024" viewBox="0 0 1024 1024">
  <defs>
    <linearGradient id="bg" x1="0" y1="0" x2="1" y2="1">
      <stop offset="0" stop-color="#7048e8"/>
      <stop offset="1" stop-color="#5f3dc4"/>
    </linearGradient>
  </defs>
  <rect x="0" y="0" width="1024" height="1024" fill="url(#bg)"/>
  <path d="M194.6206974039346 249.13563532675377 C273.22744599390285 252.23215254056018 348.07851459851474 252.05735308621195 574.9270272308956 249.13505256170103 M195.6269764176168 249.89801978028015 C328.15864122151686 253.37989126594488 462.0093048052121 253.38837183192922 575.9567957968068 249.49614265995004 M574.8325965160428 249.76894230219958 C578.2352677321244 331.2036017464989 579.0248416787513 411.7412210122741 577.6282942266448 501.7979771738043 M576.0786463973426 250.38042392451078 C576.3819182453146 319.6730155102019 577.4757409414681 389.56469220977823 576.7965110047878 500.4373581100953 M575.565068028008 498.96916997605587 C457.7682267111324 502.4622729859486 340.77065660854635 502.5970375380529 196.5900361980076 500.8109140252826 M575.5832844189522 500.6857172419655 C487.64813622473264 502.8351043608328 399.8493906660517 502.90392568123553 196.39509421135497 500.2020913155546 M195.0193343104644 498.1496568267403 C199.7986534800329 449.3058147916322 199.67935248181686 397.3506651748627 196.13392200489707 249.58437398729882 M195.554569567109 500.9274475193767 C195.52740816758202 412.86661809956365 195.09764486524926 326.533101215224 195.14086966054109 250.86043997862706" fill="none" stroke="#ffffff" stroke-width="12" stroke-linecap="round" stroke-linejoin="round"/>
  <path d="M639.8878745842416 594.6714198726097 C639.8878745842416 594.6714198726097 639.8878745842416 594.6714198726097 639.8878745842416 594.6714198726097 M639.8878745842416 594.6714198726097 C639.8878745842416 594.6714198726097 639.8878745842416 594.6714198726097 639.8878745842416 594.6714198726097 M603.058609174567 668.166636070143 C640.7551327105415 628.2029817873098 673.608662595742 591.069447281821 693.0637262078691 564.8975271983642 M605.2875084638155 667.664227385027 C638.4028510019178 630.6638615577106 672.7616051761646 591.0589534923558 693.8956658510714 565.4560442189791 M603.3896692468367 703.9879982109215 C628.475639613837 673.3501983689217 653.7976188081656 642.8878806410482 729.7456534290343 558.8420366433197 M605.010097194654 702.965467303203 C630.007365105024 674.424460454236 657.8834111963413 645.5281252729434 728.3401082401286 561.7702229776634 M608.7705415753547 729.9364870825513 C656.0643393155051 674.8358897547977 700.7200319461579 622.4704548067282 752.9204677030183 565.5466913101743 M610.5399674064095 730.3826879282673 C646.795635510562 689.9997679042033 681.2974276283016 649.1697138325341 753.3688616422273 563.0865668669197 M617.4773498505649 752.4641348486009 C654.8032301400168 714.4536689532047 685.6482244428726 673.4450452013785 771.6455957700842 574.54668243008 M619.5033558294406 753.1263223546121 C681.719654100213 684.2018757608822 742.1404651070741 615.0020118419251 773.0444415124048 574.9515203811434 M631.0136774663121 773.8174648711944 C683.4480262345411 711.9666919864048 735.9500571843682 652.5623552716131 793.8491219159492 587.4566681387269 M631.3369957185365 771.8276973157078 C667.7248904956164 730.7376187633974 702.2869578102479 690.6464836471588 792.7114843011914 586.7414061611702 M645.7828433372883 790.7593680741535 C687.346871668502 737.7252669621924 733.7266716327815 689.2952422988063 806.7369110685497 603.2966252039072 M645.3842576704171 790.2682432547164 C699.6554680065524 727.2735856839613 755.1942579959185 664.555975858908 806.7646374110078 603.7254450364023 M664.3961671566245 802.9718284298604 C706.0351150618135 755.3000372790573 752.8864093960284 701.8086122038434 822.9283840842279 620.1073033520222 M663.5322026705975 802.4693342983735 C710.766556587874 749.4669651259086 756.3331379050403 697.8119679378877 820.3456998791962 621.2918931447679 M684.1200922559867 815.1282420754744 C713.1631816485484 780.0287433829436 744.2846389048383 743.3695348651304 830.6231473049596 646.4215469204242 M682.7203169486996 814.0677024241882 C725.6928295562888 761.3255240089369 772.0349126388634 707.9214327678164 829.2100389983761 645.3201374290195 M705.2758173734437 819.5927379698362 C752.86275847598 766.3424360211461 800.7210401845439 713.6860702151797 836.055029651485 672.2892110679938 M706.7324829261771 818.6956339669749 C735.0542342518709 788.1536485926188 762.6238984951658 755.8245114283812 835.7667401815854 671.2682095439347 M736.8845226113701 818.3194823855998 C766.1827359326775 783.8806373091553 797.5230655532448 751.3215625137262 840.1401504281274 703.6345400377146 M734.6856888533122 818.8151471666058 C775.0241945676406 776.1618613813155 812.1661605911597 733.0451806269062 837.6863300903532 702.9730153377603 M779.968392603388 800.2017199968969 C794.0571727705226 783.7537307951933 807.2977730045047 768.5744237074081 825.5474586783959 747.2933680345288 M780.9378952412493 800.963552199542 C797.1011258067695 782.2209595856049 814.2214650208017 761.2524704063259 826.9384711945945 748.9585374610017" fill="none" stroke="#ff8787" stroke-width="4" stroke-linecap="round" opacity="0.9"/>
  <path d="M674.9915010529605 569.7476607005036 C685.8982804545107 562.25122777227 700.2683454401031 560.0833808697491 713.3805213919378 559.1051402669875 C726.4926973437725 558.1268996642259 740.6050602425396 559.3717289914205 753.6645567639686 563.8782170839336 C766.7240532853975 568.3847051764467 780.7086774829461 576.883952050025 791.7375005205113 586.1440688220661 C802.7663235580765 595.4041855941072 812.4800657099012 606.8747213044369 819.8374949893599 619.4389177161802 C827.1949242688187 632.0031141279235 832.9001666302432 647.1829003629674 835.8820761972639 661.5292472925262 C838.8639857642846 675.8755942220849 839.4903924593915 690.6684960786 837.7289523914839 705.516999293533 C835.9675123235762 720.365502508466 831.362518660464 737.1137896076123 825.3134357898178 750.6202665821241 C819.2643529191716 764.126743556636 811.2224659635906 776.4519256747742 801.4344551676065 786.5558611406043 C791.6464443716225 796.6597966064344 779.1160194039096 805.343562152113 766.5853710139136 811.2438793771045 C754.0547226239175 817.1441966020959 739.7796275829725 821.0557493463737 726.25056482763 821.9577644905531 C712.7215020722875 822.8597796347326 698.3329355600404 821.3236573510665 685.4109944818587 816.655970242181 C672.489053403677 811.9882831332955 659.3187940397615 803.2439205633268 648.7189183585396 793.9516418372405 C638.1190426773176 784.6593631111541 629.1588533944553 773.4393650794236 621.811740394527 760.9022978856626 C614.4646273945987 748.3652306919016 607.9136687027651 733.0791259482725 604.63624035897 718.7292386746741 C601.3588120151749 704.3793514010757 600.3150107326704 689.5323212761996 602.1471703317566 674.8029742440723 C603.9793299308427 660.073627211945 609.3253482023682 643.7242128349873 615.6291979534869 630.3531564819102 C621.9330477046057 616.9821001288332 627.3943327770469 605.7107822778622 639.9702688384689 594.5766361256101 C652.5462048998909 583.442489973358 679.3410947262755 568.8241736852252 691.0848143220192 563.5482795683976 C702.8285339177628 558.2723854515699 709.9692207500902 560.7802961524181 710.4325864129305 562.9212714246439 M697.5143861120503 561.3088135065266 C709.3582892752395 556.475942692869 725.0304931919882 558.8673002795368 738.1353615265004 560.9768962346543 C751.2402298610127 563.0864921897718 764.4460402899854 566.6824619981801 776.1435961191241 573.9663892372314 C787.8411519482629 581.2503164762827 799.6190355022668 592.9073669956722 808.3206965013331 604.6804596689625 C817.0223575003995 616.4535523422528 823.2233134607941 630.775337942828 828.3535621135225 644.6049452769732 C833.4838107662508 658.4345526111185 838.5050569215239 672.822871324257 839.1021884177032 687.6581036738344 C839.6993199138826 702.4933360234118 836.3776763076315 719.4514707381151 831.9363510905987 733.6163393744375 C827.4950258735659 747.78120801076 821.2070666765393 761.1463853573592 812.454237115506 772.6473154917694 C803.7014075544727 784.1482456261796 790.9655569983829 794.6504572660322 779.419373724399 802.6219201808983 C767.873190450415 810.5933830957645 756.2827503855697 817.8126498094116 743.1771374716022 820.4760929809663 C730.0715245576348 823.139536152521 713.8959518619488 821.43689830922 700.7856962405946 818.602579210227 C687.6754406192404 815.7682601112339 676.3240375916507 810.8469624579079 664.5156037434771 803.4701783870079 C652.7071698953034 796.0933943161078 638.8038843154212 785.2551526190522 629.9350931515528 774.3418747848269 C621.0663019876844 763.4285969506017 615.8110089027632 751.3994733313112 611.3028567602663 737.9905113816565 C606.7947046177694 724.5815494320017 603.48495705231 708.7916596164229 602.8861802965715 693.8881030868981 C602.287403540833 678.9845465573734 603.7203612486014 662.9694061794539 607.7101962258353 648.5691722045078 C611.7000312030691 634.1689382295617 617.9676212950545 619.0916914475449 626.8251901599747 607.4866992372218 C635.6827590248948 595.8817070268988 649.2898925354987 586.4289927336262 660.8556094153562 578.9392189425694 C672.4213262952137 571.4494451515126 690.092083763278 565.0971138397477 696.21949143912 562.5480564908811 C702.3468991149621 559.9989991420144 697.1901128296341 561.6499420048485 697.6200554704086 563.6448748493694" fill="none" stroke="#ffffff" stroke-width="12" stroke-linecap="round" stroke-linejoin="round"/>
  <path d="M670.0273628129518 339.96852268444775 C670.0273628129518 339.96852268444775 670.0273628129518 339.96852268444775 670.0273628129518 339.96852268444775 M670.0273628129518 339.96852268444775 C670.0273628129518 339.96852268444775 670.0273628129518 339.96852268444775 670.0273628129518 339.96852268444775 M684.154321757336 352.6422427544946 C702.8075279238793 325.66618072117643 725.0819457446609 302.2753436687435 766.2562421231314 257.36777647697386 M682.944138477328 353.58513349249193 C715.5109129295856 314.3079380829802 746.8913145114284 275.9747403959633 765.8186692020173 256.1853013810331 M694.2749211868095 365.9159165526721 C715.7581394690175 339.9232641801263 742.8511027548659 311.6729478180518 781.489951191184 269.5767161473518 M694.226468379545 366.1504570926986 C719.6898891728065 337.5799980340989 745.3883004674112 309.170338094962 778.5864315405888 268.8796622634286 M706.6493353635046 380.1011555089387 C726.2734808636146 358.5852095105723 744.2257393470047 336.33302343707516 790.1805193710226 283.03184083436173 M709.081562489967 378.03677697472784 C723.5379881032977 357.09167683655 741.5380635609159 337.3506011962654 791.1555319319099 280.6631674233966 M720.5906916597983 389.74944959902484 C740.9927319322375 362.73553968398755 766.3495541836188 338.9721897431967 805.3896135327642 293.8546379647616 M721.1968203367325 389.88681388823596 C751.4379490832854 358.7846888033537 781.8894540632255 322.7192620765637 803.9552199487345 293.4419432647459 M734.3364381958074 405.51900499968843 C762.7631403926376 369.4830815554009 791.6567434511162 339.0927419745707 817.7379782362856 309.38585532678206 M734.5323508675951 402.5195848620316 C762.1668113774771 372.21441322965865 788.0794109110849 343.69834175244756 817.426899025451 307.6812691308829 M748.4081007814091 415.3622882491599 C778.15022067618 381.12255043812695 805.6994145770301 348.3153275325424 828.0015468471848 320.94478774923516 M745.2979168919436 416.175759864521 C764.5074119744954 395.6438624952638 782.8137493375368 373.5672395369008 830.5874250740444 320.5726764839204 M761.4073940322008 430.88531292625174 C775.0445934896181 408.37535574450567 791.9666515953518 389.81315577260517 843.2469623628389 332.43565958285154 M758.9162336967624 428.68476098281735 C783.8974959078979 402.3109160070072 806.9863679815019 377.34298450732405 843.3818148101531 332.8981438860149" fill="none" stroke="#63e6be" stroke-width="4" stroke-linecap="round" opacity="0.9"/>
  <path d="M758.357558894623 248.7254023502581 C776.1883352248882 266.5332071443191 793.3602730289986 283.75241093701777 851.8620984350331 341.3535574833862 M760.0621038069482 250.9128652008716 C781.988765101689 275.2936055208063 806.8357181567652 299.39324580062834 850.2977087115403 340.2972147630993 M850.7016296421177 338.5644546668045 C827.3564940532212 363.36157777048 807.0166701707532 385.38208188022764 760.1973897521384 431.60072547299785 M851.0269880985376 339.54250450604593 C833.7365659813909 358.12877275447266 814.2008957488043 377.3572606035219 759.1037251194473 428.9152408423368 M759.0321655576117 429.26363147599625 C735.5882785780587 408.50479201521813 713.1933349129046 388.99806320645007 671.7357752655632 338.60784400505946 M759.0451783498283 429.50412456416524 C731.2310078860455 401.9113311906727 702.4837075296053 371.4783816866027 670.9393765275832 340.1443629699294 M672.1139157866128 339.02893558545037 C692.9313925151239 316.1607461653491 714.9930131307328 294.016130850262 762.0417111520655 250.43902135593817 M670.7519513552543 341.1438694792334 C696.0641592300022 313.8523350893324 721.7269393746267 286.78483990736214 759.2205549647566 251.10870376550594" fill="none" stroke="#ffffff" stroke-width="10" stroke-linecap="round" stroke-linejoin="round"/>
  <path d="M470.32926482437176 470.9423372504301 C493.8510667948173 500.15635731342155 523.0718622524413 523.3225960853595 600.0368307250552 602.2559291389771 M470.8701730115805 469.22144200145266 C511.9025743017802 509.625596165088 552.0512077634121 548.5287083346295 598.9628478525672 599.7286912718322" fill="none" stroke="#ffd43b" stroke-width="13" stroke-linecap="round" stroke-linejoin="round"/>
  <path d="M599.0151177892461 599.7508047005161 C588.6895349723294 599.7238327498312 575.6294454726399 596.559596929955 544.4241968700662 592.4071149667725 M598.9742076138966 600.6757304017432 C580.9274945507578 596.8636487351624 562.0890320499249 594.9080168874829 542.4454174230807 591.4444295261986" fill="none" stroke="#ffd43b" stroke-width="13" stroke-linecap="round" stroke-linejoin="round"/>
  <path d="M600.9868237189949 601.9677396006882 C597.427128653597 587.8791427889407 598.2154382575266 577.4583994255901 591.5989291600883 544.3094866223634 M599.7822768185288 598.9843072023243 C598.3847229781367 578.3580122193902 594.4700479152419 558.8805614842682 592.4105565641075 541.8759060349315" fill="none" stroke="#ffd43b" stroke-width="13" stroke-linecap="round" stroke-linejoin="round"/>
</svg>