<svg xmlns="http://www.w3.org/2000/svg" width="232.00" height="172.00" viewBox="0 0 232.00 172.00">
<g transform="translate(-84.00 -104.00)">
<rect width="232.00" height="172.00" fill="#ffffff"/>
<g transform="translate(100.00 120.00)" opacity="1.00"><path d="M 0.00 32.00 C 0.80 28.55 1.45 26.20 1.09 23.72 M 0.00 32.00 C 0.77 29.27 0.94 26.67 1.09 23.72 M 1.09 23.72 C 2.33 20.87 3.37 18.45 4.29 16.00 M 1.09 23.72 C 1.65 21.77 2.86 19.36 4.29 16.00 M 4.29 16.00 C 6.61 14.44 6.88 11.79 9.37 9.37 M 4.29 16.00 C 5.40 14.31 6.96 12.74 9.37 9.37 M 9.37 9.37 C 11.25 7.65 14.29 6.82 16.00 4.29 M 9.37 9.37 C 10.89 7.85 12.90 6.64 16.00 4.29 M 16.00 4.29 C 19.13 3.01 21.61 1.49 23.72 1.09 M 16.00 4.29 C 19.36 2.85 21.73 1.50 23.72 1.09 M 23.72 1.09 C 26.55 0.18 28.40 -0.14 32.00 0.00 M 23.72 1.09 C 25.91 0.65 28.16 0.15 32.00 0.00 M 32.00 0.00 C 62.55 1.29 92.39 -0.74 168.00 0.00 M 32.00 0.00 C 72.10 -0.18 112.57 -0.33 168.00 0.00 M 168.00 0.00 C 169.97 0.68 172.75 1.11 176.28 1.09 M 168.00 0.00 C 171.21 0.25 173.65 0.50 176.28 1.09 M 176.28 1.09 C 179.57 2.41 181.18 3.01 184.00 4.29 M 176.28 1.09 C 177.72 1.57 179.49 2.50 184.00 4.29 M 184.00 4.29 C 185.60 5.84 188.81 6.89 190.63 9.37 M 184.00 4.29 C 186.18 6.24 189.02 7.50 190.63 9.37 M 190.63 9.37 C 192.80 11.81 193.17 12.42 195.71 16.00 M 190.63 9.37 C 191.51 11.38 192.99 12.52 195.71 16.00 M 195.71 16.00 C 196.12 17.61 197.54 19.76 198.91 23.72 M 195.71 16.00 C 197.09 18.17 198.00 20.73 198.91 23.72 M 198.91 23.72 C 199.61 26.25 199.52 29.63 200.00 32.00 M 198.91 23.72 C 199.66 26.85 199.47 29.31 200.00 32.00 M 200.00 32.00 C 200.53 51.20 199.35 72.75 200.00 108.00 M 200.00 32.00 C 200.37 53.16 199.85 75.79 200.00 108.00 M 200.00 108.00 C 199.95 111.41 199.51 114.49 198.91 116.28 M 200.00 108.00 C 199.34 111.40 199.35 114.48 198.91 116.28 M 198.91 116.28 C 198.46 119.49 196.54 121.08 195.71 124.00 M 198.91 116.28 C 198.37 118.13 196.88 120.37 195.71 124.00 M 195.71 124.00 C 194.59 127.01 191.73 128.77 190.63 130.63 M 195.71 124.00 C 194.60 125.46 193.00 127.75 190.63 130.63 M 190.63 130.63 C 188.58 131.98 186.07 134.86 184.00 135.71 M 190.63 130.63 C 189.17 131.63 187.50 133.22 184.00 135.71 M 184.00 135.71 C 181.37 136.38 179.21 137.83 176.28 138.91 M 184.00 135.71 C 182.59 136.58 180.53 137.32 176.28 138.91 M 176.28 138.91 C 174.02 139.69 171.21 140.20 168.00 140.00 M 176.28 138.91 C 174.40 139.39 173.01 139.41 168.00 140.00 M 168.00 140.00 C 129.63 138.69 92.31 141.37 32.00 140.00 M 168.00 140.00 C 134.25 141.44 102.37 140.44 32.00 140.00 M 32.00 140.00 C 29.19 140.56 27.78 139.93 23.72 138.91 M 32.00 140.00 C 29.81 139.90 28.56 139.47 23.72 138.91 M 23.72 138.91 C 21.25 137.05 17.93 136.69 16.00 135.71 M 23.72 138.91 C 21.11 137.61 18.77 136.86 16.00 135.71 M 16.00 135.71 C 13.51 133.79 12.33 132.35 9.37 130.63 M 16.00 135.71 C 13.24 133.38 10.69 131.43 9.37 130.63 M 9.37 130.63 C 8.49 128.68 7.15 126.64 4.29 124.00 M 9.37 130.63 C 8.43 128.95 7.50 127.85 4.29 124.00 M 4.29 124.00 C 4.21 122.40 1.97 119.81 1.09 116.28 M 4.29 124.00 C 3.85 122.51 2.59 120.84 1.09 116.28 M 1.09 116.28 C 0.89 114.82 0.40 111.92 0.00 108.00 M 1.09 116.28 C 0.90 113.79 0.86 112.09 0.00 108.00 M 0.00 108.00 C -1.08 93.14 0.35 77.44 0.00 32.00 M 0.00 108.00 C -0.70 83.93 0.12 61.19 0.00 32.00" fill="none" stroke="#1e1e1e" stroke-width="2.00" stroke-linecap="round"/></g>
<g transform="translate(130.00 175.00)" opacity="1.00"><text x="0" y="16.00" font-size="20.00" fill="#1e1e1e">Hello</text></g>
</g>
</svg>