<svg xmlns="http://www.w3.org/2000/svg" width="432.00" height="362.00" viewBox="0 0 432.00 362.00">
<g transform="translate(-4.00 -4.00)">
<rect width="432.00" height="362.00" fill="#ffffff"/>
<g transform="translate(20.00 20.00)" opacity="1.00"><path d="M -0.44 20.34 L -0.43 13.91 L 2.09 11.88 L 7.63 6.87 L 8.95 3.51 L 16.75 -0.22 L 19.39 -1.73 L 99.38 -1.16 L 106.24 -0.69 L 110.31 0.78 L 115.62 5.53 L 116.36 11.05 L 120.62 13.33 L 120.06 20.23 L 118.34 61.60 L 119.35 63.69 L 118.91 68.73 L 115.88 73.28 L 111.16 78.39 L 105.32 78.97 L 98.34 79.08 L 20.37 81.96 L 14.41 79.92 L 9.69 75.65 L 4.34 74.95 L 4.19 71.35 L 2.47 65.40 L 1.44 61.96" fill="#a5d8ff" stroke="none"/><path d="M 0.00 20.00 C 0.46 18.60 0.35 18.13 0.68 14.82 M 0.00 20.00 C 0.28 17.80 0.38 16.14 0.68 14.82 M 0.68 14.82 C 1.91 13.44 2.54 10.88 2.68 10.00 M 0.68 14.82 C 1.43 13.34 2.05 11.65 2.68 10.00 M 2.68 10.00 C 3.70 8.00 5.35 6.57 5.86 5.86 M 2.68 10.00 C 3.68 9.13 4.28 8.03 5.86 5.86 M 5.86 5.86 C 7.76 5.18 8.63 4.05 10.00 2.68 M 5.86 5.86 C 6.92 5.01 7.98 4.22 10.00 2.68 M 10.00 2.68 C 11.39 1.72 12.79 2.14 14.82 0.68 M 10.00 2.68 C 11.54 2.07 12.63 1.50 14.82 0.68 M 14.82 0.68 C 16.29 0.98 18.00 -0.10 20.00 0.00 M 14.82 0.68 C 15.96 0.77 16.76 0.59 20.00 0.00 M 20.00 0.00 C 38.00 -2.28 54.17 -1.18 100.00 0.00 M 20.00 0.00 C 42.78 0.20 67.08 -0.92 100.00 0.00 M 100.00 0.00 C 101.67 -0.23 104.39 0.94 105.18 0.68 M 100.00 0.00 C 101.53 0.12 102.63 0.34 105.18 0.68 M 105.18 0.68 C 106.80 1.60 109.42 1.99 110.00 2.68 M 105.18 0.68 C 106.21 0.93 106.99 1.70 110.00 2.68 M 110.00 2.68 C 110.81 3.28 112.23 3.67 114.14 5.86 M 110.00 2.68 C 110.93 3.39 112.33 4.18 114.14 5.86 M 114.14 5.86 C 115.48 7.15 116.23 8.48 117.32 10.00 M 114.14 5.86 C 114.74 6.82 115.51 8.12 117.32 10.00 M 117.32 10.00 C 118.19 12.01 118.90 13.45 119.32 14.82 M 117.32 10.00 C 117.88 11.54 118.83 12.86 119.32 14.82 M 119.32 14.82 C 119.89 16.00 119.57 17.38 120.00 20.00 M 119.32 14.82 C 119.61 16.65 120.01 18.68 120.00 20.00 M 120.00 20.00 C 120.21 26.67 119.35 38.19 120.00 60.00 M 120.00 20.00 C 118.86 34.26 120.59 48.82 120.00 60.00 M 120.00 60.00 C 120.25 61.42 120.05 62.96 119.32 65.18 M 120.00 60.00 C 119.91 61.38 119.58 63.10 119.32 65.18 M 119.32 65.18 C 118.77 67.25 118.08 68.10 117.32 70.00 M 119.32 65.18 C 118.75 66.09 118.38 67.04 117.32 70.00 M 117.32 70.00 C 116.44 71.28 115.81 72.17 114.14 74.14 M 117.32 70.00 C 116.38 71.62 115.08 72.79 114.14 74.14 M 114.14 74.14 C 112.93 75.38 110.92 76.19 110.00 77.32 M 114.14 74.14 C 112.70 75.20 111.12 76.14 110.00 77.32 M 110.00 77.32 C 108.47 78.41 105.88 79.29 105.18 79.32 M 110.00 77.32 C 108.83 77.94 107.44 78.37 105.18 79.32 M 105.18 79.32 C 103.65 79.62 102.41 79.60 100.00 80.00 M 105.18 79.32 C 103.51 79.76 101.86 79.76 100.00 80.00 M 100.00 80.00 C 74.06 81.19 46.37 79.62 20.00 80.00 M 100.00 80.00 C 78.35 79.78 58.49 80.85 20.00 80.00 M 20.00 80.00 C 18.86 79.61 17.41 80.08 14.82 79.32 M 20.00 80.00 C 18.73 79.74 17.86 79.79 14.82 79.32 M 14.82 79.32 C 13.52 78.45 12.39 78.92 10.00 77.32 M 14.82 79.32 C 13.54 78.56 12.09 77.92 10.00 77.32 M 10.00 77.32 C 8.73 76.45 6.24 75.09 5.86 74.14 M 10.00 77.32 C 9.20 76.61 8.32 75.90 5.86 74.14 M 5.86 74.14 C 5.02 72.43 3.08 70.99 2.68 70.00 M 5.86 74.14 C 5.06 73.03 4.65 72.37 2.68 70.00 M 2.68 70.00 C 1.80 68.46 1.08 66.01 0.68 65.18 M 2.68 70.00 C 2.03 68.44 1.14 66.52 0.68 65.18 M 0.68 65.18 C 0.51 64.21 0.75 62.43 0.00 60.00 M 0.68 65.18 C 0.80 64.04 0.40 63.06 0.00 60.00 M 0.00 60.00 C 1.75 49.76 -1.41 41.47 0.00 20.00 M 0.00 60.00 C -0.24 44.46 0.78 27.52 0.00 20.00" fill="none" stroke="#1e1e1e" stroke-width="2.00" stroke-linecap="round"/></g>
<g transform="translate(180.00 20.00)" opacity="1.00"><path d="M 56.76 0.14 C 65.26 0.56 75.29 4.76 82.21 9.37 C 89.12 13.98 95.48 20.86 98.26 27.79 C 101.04 34.72 101.19 44.01 98.88 50.94 C 96.56 57.87 91.01 64.65 84.37 69.36 C 77.72 74.06 68.20 77.99 59.01 79.17 C 49.82 80.35 37.62 79.22 29.23 76.45 C 20.83 73.68 13.36 68.58 8.64 62.53 C 3.91 56.48 1.14 47.51 0.86 40.14 C 0.59 32.76 2.41 24.22 6.97 18.27 C 11.54 12.33 19.40 7.28 28.26 4.45 C 37.12 1.62 54.32 1.70 60.14 1.32 C 65.95 0.93 63.31 1.44 63.15 2.15 M 50.62 -0.29 C 59.12 -0.74 69.08 1.63 76.50 5.72 C 83.91 9.80 91.18 17.35 95.08 24.21 C 98.99 31.08 101.46 39.91 99.94 46.89 C 98.42 53.87 92.24 60.66 85.96 66.11 C 79.67 71.56 70.99 77.79 62.25 79.59 C 53.51 81.39 42.20 79.49 33.52 76.92 C 24.83 74.34 15.74 69.43 10.15 64.13 C 4.56 58.84 0.58 52.02 -0.04 45.15 C -0.66 38.27 2.24 29.47 6.42 22.89 C 10.60 16.32 17.71 9.27 25.05 5.70 C 32.40 2.12 45.99 2.34 50.48 1.45 C 54.98 0.56 51.88 -0.18 52.04 0.36" fill="#b2f2bb" stroke="none"/><path d="M 68.73 3.65 C 77.10 5.64 86.15 10.65 91.28 16.51 C 96.41 22.36 99.21 31.61 99.53 38.79 C 99.85 45.97 97.70 53.39 93.21 59.59 C 88.72 65.80 80.56 72.65 72.60 76.02 C 64.65 79.39 54.47 80.61 45.47 79.81 C 36.47 79.01 25.74 75.88 18.60 71.21 C 11.45 66.53 5.54 58.66 2.61 51.77 C -0.32 44.88 -1.25 36.64 1.00 29.89 C 3.25 23.13 9.50 16.07 16.11 11.26 C 22.72 6.45 31.13 2.26 40.66 1.02 C 50.19 -0.21 67.31 2.84 73.29 3.87 C 79.27 4.90 77.05 6.33 76.57 7.19 M 47.59 1.06 C 56.01 0.17 67.59 1.14 75.37 4.39 C 83.16 7.65 90.03 13.97 94.31 20.59 C 98.60 27.20 101.71 36.89 101.08 44.09 C 100.46 51.29 96.42 58.35 90.54 63.77 C 84.67 69.19 74.61 73.86 65.83 76.60 C 57.05 79.34 46.41 81.71 37.87 80.20 C 29.33 78.69 20.63 72.99 14.61 67.57 C 8.59 62.14 3.54 54.64 1.75 47.65 C -0.04 40.66 0.71 32.51 3.85 25.61 C 7.00 18.72 13.30 10.50 20.60 6.28 C 27.90 2.06 42.98 0.97 47.65 0.29 C 52.31 -0.39 48.48 1.70 48.60 2.20" fill="none" stroke="#1e1e1e" stroke-width="2.00" stroke-linecap="round"/></g>
<g transform="translate(320.00 20.00)" opacity="1.00"><path d="M 45.00 0.00 C 52.79 9.25 62.49 16.84 90.00 45.00 M 45.00 0.00 C 61.01 14.51 74.60 29.47 90.00 45.00 M 90.00 45.00 C 79.35 54.67 64.99 68.89 45.00 90.00 M 90.00 45.00 C 78.10 57.53 65.22 69.22 45.00 90.00 M 45.00 90.00 C 29.76 76.91 17.98 62.92 0.00 45.00 M 45.00 90.00 C 29.27 75.71 15.65 60.32 0.00 45.00 M 0.00 45.00 C 8.83 36.85 22.03 26.05 45.00 0.00 M 0.00 45.00 C 15.52 28.72 32.32 12.01 45.00 0.00" fill="none" stroke="#1e1e1e" stroke-width="2.00" stroke-linecap="round"/></g>
<g transform="translate(20.00 140.00)" opacity="1.00"><path d="M 0.00 0.00 C 22.01 -0.31 49.54 -1.52 120.00 0.00 M 0.00 0.00 C 24.70 0.66 49.70 -0.29 120.00 0.00 M 120.00 0.00 C 121.21 17.93 121.26 36.77 120.00 60.00 M 120.00 0.00 C 119.86 14.99 120.42 31.17 120.00 60.00 M 120.00 60.00 C 90.41 45.58 58.75 26.89 0.00 0.00 M 120.00 60.00 C 76.16 38.37 31.76 14.43 0.00 0.00 M 0.00 0.00 C 0.00 0.00 0.00 0.00 0.00 0.00 M 0.00 0.00 C 0.00 0.00 0.00 0.00 0.00 0.00" fill="none" stroke="#1e1e1e" stroke-width="2.00" stroke-linecap="round"/></g>
<g transform="translate(180.00 160.00)" opacity="1.00"><path d="M 0.00 0.00 C 24.44 -0.19 47.62 1.30 120.00 0.00 M 0.00 0.00 C 34.06 0.07 67.47 0.21 120.00 0.00" fill="none" stroke="#1e1e1e" stroke-width="2.00" stroke-linecap="round"/></g>
<g transform="translate(320.00 140.00)" opacity="1.00"><path d="M 1.65 -2.48 L 20.72 10.60 L 16.66 30.69 L 43.18 43.24 L 44.79 44.53 L 45.91 46.26 L 46.41 48.26 L 46.25 50.32 L 45.44 52.22 L 44.07 53.75 L 42.27 54.77 L 40.25 55.17 L 38.20 54.89 L 36.35 53.98 L 34.89 52.53 L 33.97 50.68 L 33.69 48.64 L 34.07 46.61 L 35.08 44.81 L 36.61 43.43 L 38.51 42.61 L 40.56 42.44 L 42.56 42.93 L 44.31 44.04 L 45.60 45.64 L 46.32 47.58 L 46.38 49.64 L 45.78 51.61 L 44.58 53.29 L 42.91 54.50 L 40.94 55.11 L 38.87 55.06 L 36.94 54.35 L 36.94 54.35 L 9.50 36.59 L 13.78 12.40 L -1.65 2.48 L -2.19 2.01 L -2.61 1.42 L -2.88 0.76 L -2.97 0.05 L -2.90 -0.67 L -2.66 -1.34 L -2.26 -1.94 L -1.73 -2.42 L -1.10 -2.76 L -0.41 -2.95 L 0.31 -2.96 L 1.01 -2.80 L 1.65 -2.48 Z" fill="#1e1e1e" stroke="none"/></g>
<g transform="translate(20.00 240.00)" opacity="1.00"><text x="0" y="16.00" font-size="20.00" fill="#1e1e1e">Golden &lt;scene&gt;</text></g>
<g transform="translate(200.00 230.00)" opacity="1.00"></g>
</g>
</svg>